/* XPM */
static char * banner_fvwm_red_3D_xpm[] = {
"130 54 87 1",
" 	c None",
".	c #FE0000",
"+	c #FD0000",
"@	c #D80000",
"#	c #D70000",
"$	c #D50000",
"%	c #800000",
"&	c #770000",
"*	c #FB0000",
"=	c #DD0000",
"-	c #D20000",
";	c #CE0000",
">	c #CB0000",
",	c #820000",
"'	c #C10000",
")	c #7D0000",
"!	c #E10000",
"~	c #C70000",
"{	c #7E0000",
"]	c #CA0000",
"^	c #9E0000",
"/	c #F60000",
"(	c #C00000",
"_	c #E00000",
":	c #C40000",
"<	c #840000",
"[	c #C80000",
"}	c #C90000",
"|	c #8C0000",
"1	c #CD0000",
"2	c #A00000",
"3	c #B90000",
"4	c #7C0000",
"5	c #E20000",
"6	c #D40000",
"7	c #7F0000",
"8	c #BF0000",
"9	c #E40000",
"0	c #EB0000",
"a	c #A90000",
"b	c #DE0000",
"c	c #990000",
"d	c #F70000",
"e	c #860000",
"f	c #EF0000",
"g	c #BB0000",
"h	c #FA0000",
"i	c #E30000",
"j	c #7A0000",
"k	c #780000",
"l	c #A20000",
"m	c #DA0000",
"n	c #EE0000",
"o	c #790000",
"p	c #AA0000",
"q	c #C20000",
"r	c #C50000",
"s	c #BD0000",
"t	c #FC0000",
"u	c #870000",
"v	c #F90000",
"w	c #810000",
"x	c #850000",
"y	c #F80000",
"z	c #CC0000",
"A	c #CF0000",
"B	c #EC0000",
"C	c #880000",
"D	c #AC0000",
"E	c #8B0000",
"F	c #B10000",
"G	c #8F0000",
"H	c #9F0000",
"I	c #830000",
"J	c #8A0000",
"K	c #8D0000",
"L	c #A80000",
"M	c #E60000",
"N	c #AF0000",
"O	c #F50000",
"P	c #D10000",
"Q	c #A40000",
"R	c #D30000",
"S	c #F40000",
"T	c #A30000",
"U	c #AB0000",
"V	c #B70000",
".............................+@  ........+@           ........+@  ........+@           ........+@  .......+#             .......+#",
"............................+$%  .......+$%           .......+$%  .......+$%           .......+$%  ......+$%&           .......+$%",
"...*************************$%&  ...****$%&           ...****$%&  ...****$%&           ...****$%&  ...***=%&&           ..+****$%&",
"..*-;;;;;;;;;;;;;;;;;;;;;;;>,&&  ..*-;;>,&&           ..*-;;>,&&  ..*-;;>,&&           ..*-;;>,&&  ..*-;;')&&&         ..+!;;;>,&&",
"..*;>>>>>>>>>>>>>>>>>>>>>>>~{&&  ..*;>>~{&&           ..*;>>~{&&  ..*;>>~{&&           ..*;>>~{&&  ..*;>>]^&&&         ../;>>>~{&&",
"..*;>>>>>>>>>>>>>>>>>>>>>>>~{&&  ..*;>>~{&&           ..*;>>~{&&  ..*;>>~{&&           ..*;>>~{&&  ..*;>>>()&&&       ..+_>>>>~{&&",
"..*;>>>~~~~~~~~~~~~~~~~~~~~:{&&  ..*;>>~{&&           ..*;>>~{&&  ..*;>>~{&&           ..*;>>~{&&  ..*;>>>]^&&&       ../;>>>>~{&&",
"..*;>>~<{{{{{{{{{{{{{{{{{{{{&&&  ..*;>>~{&&           ..*;>>~{&&  ..*;>>~{&&           ..*;>>~{&&  ..*;>>>>()&&&     ..+_>>>>>~{&&",
"..*;>>~{&&&&&&&&&&&&&&&&&&&&&&&  ..*;>>~{&&           ..*;>>~{&&  ..*;>>~{&&           ..*;>>~{&&  ..*;>>>>]^&&&     ../;>>>>>~{&&",
"..*;>>~{&&&&&&&&&&&&&&&&&&&&&&&  ..*;>>~{&&           ..*;>>~{&&  ..*;>>~{&&           ..*;>>~{&&  ..*;>>>>>()&&&   ..+_>>>>>>~{&&",
"..*;>>~{&&                       ..*;>>~{&&           ..*;>>~{&&  ..*;>>~{&&           ..*;>>~{&&  ..*;>>>>>]^&&&   ../;>>>>>>~{&&",
"..*;>>~{&&                       ..*;>>~{&&           ..*;>>~{&&  ..*;>>~{&&           ..*;>>~{&&  ..*;>>>[>>()&&& ..+_>>}}>>>~{&&",
"..*;>>~{&&                       ..*;>>~{&&           ..*;>>~{&&  ..*;>>~{&&           ..*;>>~{&&  ..*;>>~|1>]^&&&;../;>]231>>~{&&",
"..*;>>~{&&                       ..*;>>~{&&           ..*;>>~{&&  ..*;>>~{&&           ..*;>>~{&&  ..*;>>~,~>>()&45.+_>>(%6;>>~{&&",
"..*;>>~{&&                       ..*;>>~{&&           ..*;>>~{&&  ..*;>>~{&&           ..*;>>~{&&  ..*;>>~78;>]^&49./;>]^%0;>>~{&&",
"..*;>>~{&&                       ..*;>>~{&&           ..*;>>~{&&  ..*;>>~{&&           ..*;>>~{&&  ..*;>>~{ab>>()49+_>>()cd;>>~{&&",
"..*;>>~{&&                       ..*;>>~{&&           ..*;>>~{&&  ..*;>>~{&&           ..*;>>~{&&  ..*;>>~{ef;>]^49/;>]^&gh;>>~{&&",
"..*;>>~{&&                       ..*;>>~{&&           ..*;>>~{&&  ..*;>>~{&&           ..*;>>~{&&  ..*;>>~{4i_>>(,i_>>()j#*;>>~{&&",
"..*;>>~{&&                       ..*;>>~{&&           ..*;>>~{&&  ..*;>>~{&&           ..*;>>~{&&  ..*;>>~{k}/;>]lm;>]^&%n*;>>~{&&",
"..*;>>~{&o                       ..*;>>~{&&           ..*;>>~{&&  ..*;>>~{&&           ..*;>>~{&&  ..*;>>~{&p*_>>qr>>()&ch*;>>~{&&",
"..*;>>~{jst.............+#       ..*;>>~{&&           ..*;>>~{&&  ..*;>>~{&&           ..*;>>~{&&  ..*;>>~{&uv/;>>]>]^&&g+*;>>~{&&",
"..*;>>~wsh.............+$%       ..*;>>~{&&           ..*;>>~{&&  ..*;>>~{&&     ]     ..*;>>~{&&  ..*;>>~{&xy+_>>>>()&j#.*;>>~{&&",
"..*;>>[sy**************$%&       ..*;>>~{&&           ..*;>>84&&  ..*;>>~{&&    .]k    ..*;>>~{&&  ..*;>>~{&<y./;>>]^&&%f.*;>>~{&&",
"..*;>>>z;;;;;;;;;;;;;;>,&&       ..*A>>~{&&          ...Bz>]^&&&  ..*;>>~{&&    .]&    ..*;>>~{&&  ..*;>>~{&4d.+!>>()&&Ct.*;>>~{&&",
"..*;>>>>>>>>>>>>>>>>>>~{&&       ..+_>>~7&&          ..t$>>()&&   ..*;>>~{&&   ..]&&   ..*;>>~{&&  ..*;>>~{&& ..hA]^&&& ..*;>>~{&&",
"..*;>>>>>>>>>>>>>>>>>>~{&&        ../;>]^&&&        ...Bz>]^&&&   ..*;>>~{&&   ..]&&   ..*;>>~{&&  ..*;>>~{&& ..+_34&&& ..*;>>~{&&",
"..*;>>>~~~~~~~~~~~~~~~:{&&        ..+_>>()&&        ..t$>>()&&    ..*;>>~{&&  ...]&&&  ..*;>>~{&&  ..*;>>~{&&  ../D&&&  ..*;>>~{&&",
"..*;>>~<{{{{{{{{{{{{{{{&&&         ../;>]^&&&      ...Bz>]^&&&    ..*;>>~{&&  ..+]o&&  ..*;>>~{&&  ..*;>>~{&&  ..+q&&&  ..*;>>~{&&",
"..*;>>~{&&&&&&&&&&&&&&&&&&         ..+_>>()&&      ..t$>>()&&     ..*;>>~{&& .../>E&&& ..*;>>~{&&  ..*;>>~{&&   ..]&&   ..*;>>~{&&",
"..*;>>~{&&&&&&&&&&&&&&&&&&          ../;>]^&&&    ...Bz>]^&&&     ..*;>>~{&& ..+_>Fo&& ..*;>>~{&&  ..*;>>~{&&   ..]&&   ..*;>>~{&&",
"..*;>>~{&&                          ..+_>>()&&    ..t$>>()&&      ..*;>>~{&7d../;>[E&&Ct.*;>>~{&&  ..*;>>~{&&    .]&    ..*;>>~{&&",
"..*;>>~{&&                           ../;>]^&&&  ...Bz>]^&&&      ..*;>>~{&pt.+_>>>Fo&<d.*;>>~{&&  ..*;>>~{&&    .]k    ..*;>>~{&&",
"..*;>>~{&&                           ..+_>>()&&  ..t$>>()&&       ..*;>>~{k}../;>>>[E&4i.*;>>~{&&  ..*;>>~{&&     ]     ..*;>>~{&&",
"..*;>>~{&&                            ../;>]^&&kh..Bz>]^&&&       ..*;>>~{4i.+_>>>>>Fok}.*;>>~{&&  ..*;>>~{&&           ..*;>>~{&&",
"..*;>>~{&&                            ..+_>>()&,y.t$>>()&&        ..*;>>~{Gy./;>(]$>[E&pt*;>>~{&&  ..*;>>~{&&           ..*;>>~{&&",
"..*;>>~{&&                             ../;>]^&<y.Bz>]^&&&        ..*;>>~{Dt+_>]H]Bz>Foed*;>>~{&&  ..*;>>~{&&           ..*;>>~{&&",
"..*;>>~{&&                             ..+_>>()xyt$>>()&&         ..*;>>~7}./;>({]*$>[E4i*;>>~{&&  ..*;>>~{&&           ..*;>>~{&&",
"..*;>>~{&&                              ../;>]^xyBz>]^&&&         ..*;>>~Ii+_>]^k].Bz>Fo}*;>>~{&&  ..*;>>~{&&           ..*;>>~{&&",
"..*;>>~{&&                              ..+_>>(J/$>>()&&          ..*;>>~Kd/;>()&].t$>[Epv;>>~{&&  ..*;>>~{&&           ..*;>>~{&&",
"..*;>>~{&&                               ../;>]LMz>]^&&&          ..*;>>~N*_>]^&&]..Bz>FCO;>>~{&&  ..*;>>~{&&           ..*;>>~{&&",
"..*;>>~{&&                               ..+_>>rP>>()&&           ..*;>>~1/;>()&&}..t$>[G_;>>~{&&  ..*;>>~{&&           ..*;>>~{&&",
"..*;>>~{&&                                ../;>>>>]^&&&           ..*;>>]i_>]^&&&]...Bz>F};>>~{&&  ..*;>>~{&&           ..*;>>~{&&",
"..*;>>~{&&                                ..+_>>>>()&&            ..*;>>>1z>()&&& ...t$>]>>>>~{&&  ..*;>>~{&&           ..*;>>~{&&",
"..*;>>~{&&                                 ../;>>]^&&&            ..*;>>>>>]^&&&   ...Bz>>>>>~{&&  ..*;>>~{&&           ..*;>>~{&&",
"..*;>>~{&&                                 ..+_>>()&&             ..*;>>>>>()&&&   ...t$>>>>>~{&&  ..*;>>~{&&           ..*;>>~{&&",
"..*;>>~{&&                                  ../;]^&&&             ..*;>>>>]^&&&     ...Bz>>>>~{&&  ..*;>>~{&&           ..*;>>~{&&",
"..*;>>~{&&                                  ..+_()&&              ..*;>>>>()&&&     ...t$>>>>~{&&  ..*;>>~{&&           ..*;>>~{&&",
"..*;>>~{&&                                   ..OQ&&&              ..*;>>>]^&&&       ...Bz>>>~{&&  ..*;>>~{&&           ..*;>>~{&&",
"..*;>>~{&&                                   ..ta&&               ..*;>>>()&&&       ...t$>>>~{&&  ..*;>>~{&&           ..*;>>~{&&",
"..*;>>~{&&                                    .tp&&               ..*;>>]^&&&         ...Bz>>~{&&  ..*;>>~{&&           ..*;>>~{&&",
"..*>~~:{&&                                    .tp&                ..*>~~s)&&&         ...tR~~:{&&  ..*>~~:{&&           ..*>~~:{&&",
".+$,{{{&&&                                     tp&                .+$,{{4&&&           ..ST{{{&&&  .+$,{{{&&&           .+$,{{{&&&",
"+$%&&&&&&&                                     *U                 +$%&&&&&&&           .SQk&&&&&&  +$%&&&&&&&           +$%&&&&&&&",
"#%&&&&&&&&                                      V                 $%&&&&&&&             lk&&&&&&&  $%&&&&&&&&           $%&&&&&&&&"};
