/* XPM */
static char * fvwm_xpm[] = {
"29 12 66 1",
" 	c None",
".	c #F70000",
"+	c #EC0000",
"@	c #C00000",
"#	c #FE0000",
"$	c #EB0000",
"%	c #B50000",
"&	c #FA0000",
"*	c #DF0000",
"=	c #F30000",
"-	c #C30000",
";	c #BD0000",
">	c #D70000",
",	c #F10000",
"'	c #CE0000",
")	c #C10000",
"!	c #B00000",
"~	c #850000",
"{	c #C90000",
"]	c #770000",
"^	c #E10000",
"/	c #920000",
"(	c #CD0000",
"_	c #F50000",
":	c #C60000",
"<	c #7F0000",
"[	c #F90000",
"}	c #9F0000",
"|	c #C50000",
"1	c #A60000",
"2	c #C40000",
"3	c #E30000",
"4	c #CC0000",
"5	c #BB0000",
"6	c #D00000",
"7	c #B60000",
"8	c #ED0000",
"9	c #AF0000",
"0	c #D10000",
"a	c #CB0000",
"b	c #9C0000",
"c	c #D30000",
"d	c #940000",
"e	c #7D0000",
"f	c #E60000",
"g	c #9B0000",
"h	c #AE0000",
"i	c #C70000",
"j	c #A90000",
"k	c #A20000",
"l	c #A30000",
"m	c #E80000",
"n	c #E50000",
"o	c #B70000",
"p	c #B40000",
"q	c #DE0000",
"r	c #BF0000",
"s	c #D40000",
"t	c #890000",
"u	c #F80000",
"v	c #B10000",
"w	c #F20000",
"x	c #910000",
"y	c #B20000",
"z	c #900000",
"A	c #880000",
".+++++@#$%  &* =-  #+;&>   ,'",
"+)!!!!~#{]  =! ^/  #(]_:< [(}",
"+!     #{]  =! ^/  #(]_|123-}",
"+!     #{]  =! ^/  #(]_!4(56}",
"+78##  #{]  =! ^/  #(]_90ab^}",
"+'cccd #ce  fg ^/ h#(]_90ij^}",
"+!]]]   +k [2] ^d&lm(]_9 c ^}",
"+!      #'kng  ^o3-{(]_9   ^}",
"+!       +2-]  ^cpqr(]_9   ^}",
"+!       #sg   ^atus4]_9   ^}",
"+!        f]   ^v  wa]_9   ^}",
"'x             y~  $l]cz   oA"};
